<?xml version="1.0"?>
<svg xmlns="http://www.w3.org/2000/svg" xmlns:xlink="http://www.w3.org/1999/xlink" xmlns:svgjs="http://svgjs.com/svgjs" version="1.1" width="512" height="512" x="0" y="0" viewBox="0 0 512 512.00005" style="enable-background:new 0 0 512 512" xml:space="preserve" class=""><g><path xmlns="http://www.w3.org/2000/svg" d="m134.804688.183594c-70.585938-3.761719-130.855469 50.414062-134.621094 121-3.09375 58.039062 32.988281 109.105468 85.148437 127.511718v93.078126h-43.949219l43.339844 85.117187.609375 1.195313 42.722657 83.914062 42.617187-83.691406.722656-1.417969 43.328125-85.117187h-44.050781v-93.082032c47.320313-16.746094 82.308594-60.644531 85.148437-113.886718 3.75-70.585938-50.429687-130.871094-121.015624-134.621094zm0 0" fill="#4267b2" data-original="#ed6b00" style="" class=""/><path xmlns="http://www.w3.org/2000/svg" d="m255.816406 134.800781c-2.839844 53.25-37.828125 97.148438-85.140625 113.890625v93.078125h44.050781l-43.328124 85.121094-.722657 1.417969-42.617187 83.691406-.0625-.121094v-511.878906c2.261718 0 4.53125.0703125 6.8125.191406 70.578125 3.738282 124.757812 64.027344 121.007812 134.609375zm0 0" fill="#2a467e" data-original="#e35100" style="" class=""/><path xmlns="http://www.w3.org/2000/svg" d="m426.886719 263.378906v-93.152344h44.128906l-43.515625-85.117187-.457031-.894531-.15625-.300782-42.890625-83.914062-42.789063 83.691406-.722656 1.417969-14.714844 28.789063-28.789062 56.328124h44.226562v93.105469c-47.253906 16.777344-82.1875 60.652344-85.027343 113.851563-3.75 70.601562 50.414062 130.867187 121.015624 134.632812 70.585938 3.75 130.855469-50.425781 134.621094-121.015625 3.078125-57.953125-32.886718-108.941406-84.929687-127.421875zm0 0" fill="#4267b2" data-original="#ed6b00" style="" class=""/><path xmlns="http://www.w3.org/2000/svg" d="m511.816406 390.800781c-3.652344 68.308594-60.199218 121.257813-127.820312 121.199219v-512l21.449218 41.960938 21.441407 41.949218.160156.308594.449219.890625 43.519531 85.121094h-44.128906v93.148437c52.050781 18.480469 88.007812 69.472656 84.929687 127.421875zm0 0" fill="#2a467e" data-original="#e35100" style="" class=""/><path xmlns="http://www.w3.org/2000/svg" d="m154.617188 112.992188h-53.234376c-6.472656 0-11.738281-5.265626-11.738281-11.738282 0-6.476562 5.265625-11.742187 11.738281-11.742187h79.976563v-30h-38.289063v-20.195313h-30v20.195313h-11.6875c-23.015624 0-41.738281 18.726562-41.738281 41.742187s18.722657 41.738282 41.738281 41.738282h53.234376c6.476562 0 11.742187 5.269531 11.742187 11.742187s-5.269531 11.738281-11.742187 11.738281l-79.972657.003906v30h38.355469l.066406 20.113282h30.003906v-20.117188h11.546876c23.015624 0 41.742187-18.726562 41.742187-41.742187 0-23.011719-18.726563-41.738281-41.742187-41.738281zm0 0" fill="#f0f7ff" data-original="#ffe200" style="" class=""/><path xmlns="http://www.w3.org/2000/svg" d="m181.359375 89.511719h-53.359375v-50.191407h15.070312v20.191407h38.289063zm0 0" fill="#dfe7f4" data-original="#ecbb33" style="" class=""/><path xmlns="http://www.w3.org/2000/svg" d="m196.359375 154.730469c0 9.191406-2.980469 17.691406-8.03125 24.589843-7.597656 10.390626-19.878906 17.148438-33.707031 17.148438h-11.550782v20.121094h-15.070312v-50.121094h26.621094c6.46875 0 11.738281-5.257812 11.738281-11.738281 0-6.46875-5.269531-11.742188-11.738281-11.742188h-26.621094v-30h26.621094c13.828125 0 26.109375 6.761719 33.707031 17.152344 5.050781 6.898437 8.03125 15.398437 8.03125 24.589844zm0 0" fill="#dfe7f4" data-original="#ecbb33" style="" class=""/><path xmlns="http://www.w3.org/2000/svg" d="m410.613281 368.996094h-53.230469c-6.476562 0-11.742187-5.265625-11.742187-11.738282 0-6.472656 5.265625-11.742187 11.742187-11.742187h79.972657v-30h-38.289063v-20.195313h-30v20.195313h-11.6875c-23.015625 0-41.738281 18.726563-41.738281 41.742187 0 23.015626 18.722656 41.738282 41.738281 41.738282h53.234375c6.476563 0 11.742188 5.269531 11.742188 11.742187 0 6.472657-5.269531 11.738281-11.742188 11.738281l-79.972656.003907v30h38.421875v20.113281h30.003906v-20.117188h11.546875c23.015625 0 41.742188-18.722656 41.742188-41.738281s-18.726563-41.742187-41.742188-41.742187zm0 0" fill="#f0f7ff" data-original="#ffe200" style="" class=""/><g xmlns="http://www.w3.org/2000/svg" fill="#ecbb33"><path d="m437.359375 345.519531h-53.359375v-50.199219h15.070312v20.199219h38.289063zm0 0" fill="#dfe7f4" data-original="#ecbb33" style="" class=""/><path d="m452.359375 410.738281c0 23.011719-18.730469 41.742188-41.75 41.742188h-11.539063v20.109375h-15.070312v-50.109375h26.609375c6.480469 0 11.75-5.269531 11.75-11.742188 0-6.476562-5.269531-11.738281-11.75-11.738281h-26.609375v-30h26.609375c23.019531 0 41.75 18.71875 41.75 41.738281zm0 0" fill="#dfe7f4" data-original="#ecbb33" style="" class=""/></g></g></svg>
