<?xml version="1.0"?>
<svg xmlns="http://www.w3.org/2000/svg" xmlns:xlink="http://www.w3.org/1999/xlink" xmlns:svgjs="http://svgjs.com/svgjs" version="1.1" width="512" height="512" x="0" y="0" viewBox="0 0 512 512" style="enable-background:new 0 0 512 512" xml:space="preserve" class=""><g><g xmlns="http://www.w3.org/2000/svg"><g><path d="m308.149 162.796c-8.547 0-15.475-6.929-15.475-15.475v-53.704c0-11.915-9.694-21.609-21.609-21.609h-84.71c-11.915 0-21.609 9.694-21.609 21.609v53.704c0 8.547-6.929 15.475-15.475 15.475-8.547 0-15.475-6.929-15.475-15.475v-53.704c0-28.981 23.578-52.559 52.559-52.559h84.71c28.981 0 52.559 23.578 52.559 52.559v53.704c0 8.547-6.928 15.475-15.475 15.475z" fill="#8ca4d4" data-original="#c3a2a2" style="" class=""/></g><path d="m411.183 455.349h-364.946c-25.536 0-46.237-20.701-46.237-46.237v-228.187c0-25.536 20.701-46.237 46.237-46.237h364.947c25.536 0 46.237 20.701 46.237 46.237v228.188c-.001 25.535-20.702 46.236-46.238 46.236z" fill="#4267b2" data-original="#b78e8e" style="" class=""/><g fill="#b57e73"><path d="m411.183 134.688h-364.946c-25.536 0-46.237 20.701-46.237 46.237v57.525c0 25.536 20.701 46.237 46.237 46.237h364.947c25.536 0 46.237-20.701 46.237-46.237v-57.525c-.001-25.536-20.702-46.237-46.238-46.237z" fill="#2a467e" data-original="#b57e73" style="" class=""/><path d="m411.183 134.688h-41.901c25.536 0 46.237 20.701 46.237 46.237v228.187c0 25.536-20.701 46.237-46.237 46.237h41.901c25.536 0 46.237-20.701 46.237-46.237v-228.187c0-25.536-20.701-46.237-46.237-46.237z" fill="#2a467e" data-original="#b57e73" style="" class=""/><path d="m411.183 134.688h-364.946c-25.536 0-46.237 20.701-46.237 46.237v57.525c0 25.536 20.701 46.237 46.237 46.237h364.947c25.536 0 46.237-20.701 46.237-46.237v-57.525c-.001-25.536-20.702-46.237-46.238-46.237z" fill="#2a467e" data-original="#b57e73" style="" class=""/></g><path d="m396.647 284.686v-103.761c0-25.532-20.695-46.231-46.227-46.237h-304.183c-25.536 0-46.237 20.701-46.237 46.237v57.525c0 25.536 20.701 46.236 46.237 46.236h364.947.02z" fill="#2a467e" data-original="#aa8080" style="" class=""/><path d="m411.183 134.688h-63.349c25.536 0 46.237 20.701 46.237 46.237v103.761h17.112c25.536 0 46.237-20.701 46.237-46.236v-57.525c0-25.536-20.701-46.237-46.237-46.237z" fill="#253c6a" data-original="#9d6b6b" style="" class=""/><g><path d="m91.235 328.715c-15.748 0-28.514-12.766-28.514-28.514v-54.127c0-5.657 4.586-10.244 10.244-10.244h36.54c5.657 0 10.244 4.586 10.244 10.244v54.127c0 15.748-12.766 28.514-28.514 28.514z" fill="#f9efaf" data-original="#f9efaf" style="" class=""/><path d="m62.722 265.566v34.635c0 15.748 12.766 28.513 28.514 28.513 15.748 0 28.513-12.766 28.513-28.513v-34.635z" fill="#ffd064" data-original="#ffd064" style="" class=""/></g><g><g><path d="m450.195 351.064c0-55.284-37.192-101.873-87.918-116.133-51.767 13.265-90.032 60.23-90.032 116.133s38.265 102.868 90.032 116.133c50.726-14.26 87.918-60.849 87.918-116.133z" fill="#62676a" data-original="#ddeafb" style="" class=""/><path d="m450.195 351.064c0-55.284-37.192-101.873-87.918-116.133-51.767 13.265-90.032 60.23-90.032 116.133s38.265 102.868 90.032 116.133c50.726-14.26 87.918-60.849 87.918-116.133z" fill="#62676a" data-original="#ddeafb" style="" class=""/><path d="m392.122 231.186c-10.956 0-21.566 1.478-31.65 4.231 50.848 13.884 88.228 60.396 88.228 115.646s-37.38 101.762-88.228 115.646c10.083 2.753 20.693 4.231 31.65 4.231 66.207 0 119.878-53.671 119.878-119.878 0-66.205-53.671-119.876-119.878-119.876z" fill="#474f54" data-original="#bed8fb" style="" class=""/></g></g><path d="m499.817 403.779c-.246-.118-.502-.224-.766-.316-11.553-4.005-27.792-7.176-46.931-9.308 2.671-13.314 4.126-27.827 4.126-43.091 0-15.265-1.455-29.777-4.126-43.092 19.14-2.132 35.379-5.303 46.931-9.308.264-.092.52-.197.766-.316-2.17-4.426-4.606-8.698-7.285-12.796-10.766 3.48-26.012 6.279-43.857 8.182-10.717-37.48-31.787-62.437-56.553-62.437s-45.836 24.958-56.553 62.437c-17.845-1.903-33.09-4.701-43.857-8.182-2.679 4.098-5.114 8.37-7.285 12.796.247.118.502.224.767.316 11.552 4.005 27.791 7.176 46.93 9.308-2.671 13.314-4.126 27.827-4.126 43.092 0 15.264 1.455 29.777 4.126 43.091-19.139 2.131-35.378 5.303-46.931 9.308-.264.092-.52.197-.766.316 2.17 4.426 4.605 8.698 7.285 12.796 10.768-3.48 26.013-6.278 43.857-8.181 10.716 37.479 31.787 62.437 56.553 62.437 24.767 0 45.837-24.957 56.553-62.437 17.844 1.903 33.089 4.701 43.857 8.181 2.68-4.099 5.115-8.371 7.285-12.796zm-114.947 51.31c-9.669-3.285-19.039-12.993-26.491-27.736-3.12-6.174-5.814-12.982-8.05-20.284 10.943-.809 22.574-1.305 34.541-1.449zm0-63.975c-13.342.152-26.197.721-38.203 1.667-2.733-13.01-4.166-27.129-4.166-41.716 0-14.588 1.433-28.707 4.166-41.717 12.006.945 24.86 1.515 38.203 1.667zm0-94.606c-11.967-.144-23.599-.64-34.541-1.449 2.236-7.302 4.93-14.11 8.05-20.284 7.452-14.743 16.822-24.451 26.491-27.736zm14.504-49.469c9.669 3.285 19.039 12.993 26.491 27.736 3.12 6.174 5.814 12.982 8.05 20.284-10.943.809-22.574 1.305-34.541 1.448zm26.491 180.313c-7.452 14.743-16.822 24.451-26.491 27.736v-49.468c11.967.144 23.599.64 34.541 1.449-2.236 7.301-4.929 14.11-8.05 20.283zm11.712-34.571c-12.006-.945-24.861-1.515-38.203-1.667v-80.1c13.342-.152 26.197-.721 38.203-1.667 2.733 13.011 4.166 27.129 4.166 41.717s-1.433 28.706-4.166 41.717z" fill="#474f54" data-original="#bed8fb" style="" class=""/><path d="m499.051 403.463c-11.553-4.005-27.792-7.176-46.931-9.308 2.671-13.314 4.126-27.827 4.126-43.091 0-15.265-1.455-29.777-4.126-43.092 19.14-2.132 35.379-5.303 46.931-9.308.264-.092.52-.197.766-.316-2.17-4.426-4.606-8.698-7.285-12.796-10.766 3.48-26.012 6.279-43.857 8.182-10.717-37.48-31.787-62.437-56.553-62.437-7.848 0-15.324 2.506-22.218 7.122 10.603 3.868 20.507 9.19 29.47 15.724v-7.105c9.669 3.285 19.039 12.993 26.491 27.736 2.546 5.038 4.808 10.499 6.77 16.306 10.217 17.641 16.066 38.128 16.066 59.982s-5.849 42.341-16.066 59.983c-1.961 5.807-4.223 11.268-6.77 16.306-7.452 14.743-16.822 24.451-26.491 27.736v-7.105c-8.963 6.534-18.866 11.856-29.469 15.724 6.894 4.616 14.37 7.122 22.218 7.122 24.767 0 45.837-24.957 56.553-62.437 17.844 1.903 33.089 4.701 43.857 8.181 2.679-4.098 5.115-8.37 7.285-12.796-.247-.116-.502-.221-.767-.313z" fill="#32393f" data-original="#9dc6fb" style="" class=""/></g></g></svg>
