<?xml version="1.0"?>
<svg xmlns="http://www.w3.org/2000/svg" xmlns:xlink="http://www.w3.org/1999/xlink" xmlns:svgjs="http://svgjs.com/svgjs" version="1.1" width="512" height="512" x="0" y="0" viewBox="0 0 512 512" style="enable-background:new 0 0 512 512" xml:space="preserve" class=""><g><g xmlns="http://www.w3.org/2000/svg"><g><g><path d="m52.228 203.772c0 43.688 13.626 85.341 39.406 120.458 24.119 32.854 56.819 57.356 94.839 71.13l69.527 116.64 52.735-312.226-52.735-199.774c-112.36 0-203.772 91.411-203.772 203.772z" fill="#4267b2" data-original="#fed386" style="" class=""/><path d="m256 0v512l72.149-117.615c78.953-29.877 131.622-105.793 131.622-190.613.001-112.361-91.411-203.772-203.771-203.772z" fill="#2a467e" data-original="#feb26d" style="" class=""/></g><g><path d="m126.951 203.772c0 71.158 57.891 129.049 129.049 129.049l40.628-132.29-40.628-125.808c-71.158 0-129.049 57.891-129.049 129.049z" fill="#f0f7ff" data-original="#f0f7ff" style="" class=""/><path d="m256 74.723v258.098c71.158 0 129.049-57.891 129.049-129.049s-57.891-129.049-129.049-129.049z" fill="#dfe7f4" data-original="#dfe7f4" style="" class=""/></g></g><g><path d="m241.394 206.535-24.448-24.448-21.254 21.253 45.702 45.703 14.606-14.606 11.183-30.497-11.183-12.01z" fill="#474f54" data-original="#9bbcfd" style="" class=""/><path d="m294.962 152.968-38.962 38.962v42.507l60.216-60.216z" fill="#32393f" data-original="#8298fc" style="" class=""/></g></g></g></svg>
