<?xml version="1.0"?>
<svg xmlns="http://www.w3.org/2000/svg" xmlns:xlink="http://www.w3.org/1999/xlink" xmlns:svgjs="http://svgjs.com/svgjs" version="1.1" width="512" height="512" x="0" y="0" viewBox="0 0 512 512" style="enable-background:new 0 0 512 512" xml:space="preserve" class=""><g><g xmlns="http://www.w3.org/2000/svg"><g><path d="m271 196v241c0 8.399-6.599 15-15 15s-15-6.601-15-15v-241c0-8.401 6.599-15 15-15s15 6.599 15 15z" fill="#2a467e" data-original="#ffcc33" style="" class=""/></g><path d="m256 452v-271c8.401 0 15 6.599 15 15v241c0 8.399-6.599 15-15 15z" fill="#172746" data-original="#ffaf40" style="" class=""/><g><path d="m271 106v30c0 8.399-6.599 15-15 15s-15-6.601-15-15v-30c0-8.401 6.599-15 15-15s15 6.599 15 15z" fill="#2a467e" data-original="#ffcc33" style="" class=""/></g><path d="m179.931 310.434-60-150h-27.862l-60 150c-3.076 7.69.674 16.421 8.364 19.497 7.566 3.051 16.396-.591 19.497-8.364l46.07-115.174 46.069 115.173c3.109 7.793 11.954 11.406 19.497 8.364 7.691-3.076 11.441-11.806 8.365-19.496z" fill="#ecf2ff" data-original="#ecf2ff" style="" class=""/><path d="m479.931 310.434-60-150h-27.861l-60 150c-3.076 7.69.674 16.421 8.364 19.497 7.566 3.051 16.396-.591 19.497-8.364l46.069-115.174 46.069 115.173c3.109 7.793 11.954 11.406 19.497 8.364 7.691-3.076 11.441-11.806 8.365-19.496z" fill="#d9e5ff" data-original="#d9e5ff" style="" class=""/><path d="m181 121c-30.117 0-44.736 11.938-55.4 20.64-7.954 6.489-11.792 9.36-19.6 9.36-8.276 0-15-6.724-15-15 0-8.291-6.709-15-15-15s-15 6.709-15 15c0 24.814 20.186 45 45 45 18.838 0 29.78-8.936 38.569-16.113 9.126-7.456 17.007-13.887 36.431-13.887 27.393 0 29.81 12.656 30 15.366.205 8.115 6.841 14.634 15 14.634 8.291 0 15-6.709 15-15 0-15.571-12.539-45-60-45z" fill="#474f54" data-original="#697c86" style="" class=""/><path d="m436 121c-8.291 0-15 6.709-15 15 0 8.276-6.724 15-15 15-7.808 0-11.646-2.871-19.6-9.36-10.664-8.702-25.283-20.64-55.4-20.64-47.461 0-60 29.429-60 45 0 8.101 6.431 14.458 14.531 14.722 7.852.322 14.941-6.211 15.454-14.297.176-2.564 2.403-15.425 30.015-15.425 19.424 0 27.305 6.431 36.431 13.887 8.789 7.177 19.731 16.113 38.569 16.113 24.814 0 45-20.186 45-45 0-8.291-6.709-15-15-15z" fill="#32393f" data-original="#596c76" style="" class=""/><g><path d="m136 391h-60c-41.353 0-76-33.647-76-75 0-8.291 6.709-15 15-15h181c8.291 0 15 6.709 15 15 0 41.353-33.647 75-75 75z" fill="#4267b2" data-original="#ffe566" style="" class=""/></g><path d="m256 151v-60c8.401 0 15 6.599 15 15v30c0 8.399-6.599 15-15 15z" fill="#172746" data-original="#ffaf40" style="" class=""/><g><path d="m256 121c-24.901 0-45 20.099-45 45 0 24.899 20.099 45 45 45s45-20.101 45-45c0-24.901-20.099-45-45-45z" fill="#4267b2" data-original="#ffe566" style="" class=""/></g><path d="m256 211v-90c24.901 0 45 20.099 45 45 0 24.899-20.099 45-45 45z" fill="#2a467e" data-original="#ffcc33" style="" class=""/><g><path d="m268.299 6c-2.699-4.2-7.5-6-12.299-6s-9.6 1.8-12.299 6c-9.901 14.101-32.701 50.8-32.701 70 0 24.899 20.099 45 45 45s45-20.101 45-45c0-19.2-22.8-55.899-32.701-70z" fill="#4267b2" data-original="#ffe566" style="" class=""/></g><path d="m256 121v-121c4.799 0 9.6 1.8 12.299 6 9.901 14.101 32.701 50.8 32.701 70 0 24.899-20.099 45-45 45z" fill="#2a467e" data-original="#ffcc33" style="" class=""/><path d="m316 482-30 15h-60l-30-15c8.401 0 15-6.601 15-15 0-24.901 20.099-45 45-45s45 20.099 45 45c0 8.399 6.599 15 15 15z" fill="#4267b2" data-original="#ffe566" style="" class=""/><path d="m316 482-30 15h-30v-75c24.901 0 45 20.099 45 45 0 8.399 6.599 15 15 15z" fill="#2a467e" data-original="#ffcc33" style="" class=""/><g><path d="m361 497c0 8.399-6.599 15-15 15h-180c-8.401 0-15-6.601-15-15 0-8.401 6.599-15 15-15h180c8.401 0 15 6.599 15 15z" fill="#2a467e" data-original="#ffcc33" style="" class=""/></g><path d="m361 497c0 8.399-6.599 15-15 15h-90v-30h90c8.401 0 15 6.599 15 15z" fill="#172746" data-original="#ffaf40" style="" class=""/><g><path d="m436 391h-60c-41.353 0-75-33.647-75-75 0-8.291 6.709-15 15-15h181c8.291 0 15 6.709 15 15 0 41.353-34.647 75-76 75z" fill="#2a467e" data-original="#ffcc33" style="" class=""/></g></g></g></svg>
