<?xml version="1.0"?>
<svg xmlns="http://www.w3.org/2000/svg" xmlns:xlink="http://www.w3.org/1999/xlink" xmlns:svgjs="http://svgjs.com/svgjs" version="1.1" width="512" height="512" x="0" y="0" viewBox="0 0 512 512" style="enable-background:new 0 0 512 512" xml:space="preserve" class=""><g>
<path xmlns="http://www.w3.org/2000/svg" style="" d="M243.577,506.461c-7.065-7.868-173.004-194.146-173.004-321.035C70.574,83.182,153.756,0,256.001,0  s185.426,83.182,185.426,185.426c0,126.888-165.939,313.167-173.004,321.035C261.786,513.854,250.199,513.839,243.577,506.461z" fill="#4267b2" data-original="#ff5752" class=""/>
<path xmlns="http://www.w3.org/2000/svg" style="" d="M441.426,185.426C441.426,83.182,358.244,0,256.001,0v512c4.552,0,9.106-1.843,12.423-5.539  C275.487,498.594,441.426,312.315,441.426,185.426z" fill="#2a467e" data-original="#db3a3c" class=""/>
<path xmlns="http://www.w3.org/2000/svg" style="" d="M256.001,278.719c-51.442,0-93.291-41.851-93.291-93.293s41.851-93.293,93.291-93.293  s93.291,41.851,93.291,93.293S307.441,278.719,256.001,278.719z" fill="#f0f7ff" data-original="#efefef" class=""/>
<path xmlns="http://www.w3.org/2000/svg" style="" d="M256.001,92.134v186.585c51.442,0,93.291-41.851,93.291-93.293S307.441,92.134,256.001,92.134z" fill="#dfe7f4" data-original="#c5d8df" class=""/>
<g xmlns="http://www.w3.org/2000/svg">
</g>
<g xmlns="http://www.w3.org/2000/svg">
</g>
<g xmlns="http://www.w3.org/2000/svg">
</g>
<g xmlns="http://www.w3.org/2000/svg">
</g>
<g xmlns="http://www.w3.org/2000/svg">
</g>
<g xmlns="http://www.w3.org/2000/svg">
</g>
<g xmlns="http://www.w3.org/2000/svg">
</g>
<g xmlns="http://www.w3.org/2000/svg">
</g>
<g xmlns="http://www.w3.org/2000/svg">
</g>
<g xmlns="http://www.w3.org/2000/svg">
</g>
<g xmlns="http://www.w3.org/2000/svg">
</g>
<g xmlns="http://www.w3.org/2000/svg">
</g>
<g xmlns="http://www.w3.org/2000/svg">
</g>
<g xmlns="http://www.w3.org/2000/svg">
</g>
<g xmlns="http://www.w3.org/2000/svg">
</g>
</g></svg>
