<?xml version="1.0"?>
<svg xmlns="http://www.w3.org/2000/svg" xmlns:xlink="http://www.w3.org/1999/xlink" xmlns:svgjs="http://svgjs.com/svgjs" version="1.1" width="512" height="512" x="0" y="0" viewBox="0 0 510.49 510.49" style="enable-background:new 0 0 512 512" xml:space="preserve" class=""><g><g xmlns="http://www.w3.org/2000/svg"><path d="m253.591 0c-98.607 0-178.829 80.222-178.829 178.828s80.222 178.829 178.829 178.829c98.606 0 178.829-80.223 178.829-178.829s-80.222-178.828-178.829-178.828z" fill="#f0f7ff" data-original="#b0e9e7" style="" class=""/><path d="m432.42 178.828c0-98.053-79.328-177.914-177.175-178.807v357.615c97.847-.893 177.175-80.754 177.175-178.808z" fill="#dfe7f4" data-original="#43aad9" style="" class=""/><path d="m253.591 82.07c-39.811 0-72.2 32.389-72.2 72.199 0 39.812 32.389 72.2 72.2 72.2s72.2-32.389 72.2-72.2c0-39.81-32.389-72.199-72.2-72.199z" fill="#4267b2" data-original="#004c75" style="" class=""/><path d="m253.591 357.657c50.668 0 96.478-21.185 129.048-55.157-7.577-20.714-21.149-39.188-38.796-52.565-20.249-15.35-44.457-23.463-70.008-23.463h-40.489c-25.551 0-49.759 8.113-70.008 23.463-17.647 13.377-31.219 31.851-38.796 52.565 32.571 33.973 78.381 55.157 129.049 55.157z" fill="#4267b2" data-original="#004c75" style="" class=""/><g fill="#ffcd70"><path d="m142.521 436.404-43.512-6.374-19.508-39.413-19.509 39.413-43.513 6.374 31.457 30.733-7.384 43.353 38.949-20.421 38.949 20.421-7.385-43.353z" fill="#ffcd70" data-original="#ffcd70" style="" class=""/><path d="m318.266 436.404-43.512-6.374-19.508-39.413-19.508 39.413-43.514 6.374 31.457 30.733-7.384 43.353 38.949-20.421 38.949 20.421-7.385-43.353z" fill="#ffcd70" data-original="#ffcd70" style="" class=""/><path d="m494.011 436.404-43.512-6.374-19.508-39.413-19.508 39.413-43.514 6.374 31.458 30.733-7.385 43.353 38.949-20.421 38.949 20.421-7.385-43.353z" fill="#ffcd70" data-original="#ffcd70" style="" class=""/></g><path d="m494.011 436.404-43.512-6.374-19.508-39.413-19.508 39.413-43.514 6.374 31.458 30.733-7.385 43.353 38.949-20.421 38.949 20.421-7.385-43.353z" fill="#ffac63" data-original="#ffac63" style="" class=""/><path d="m325.791 154.27c0-39.256-31.498-71.272-70.546-72.157v144.315c39.048-.886 70.546-32.902 70.546-72.158z" fill="#2a467e" data-original="#00385b" style="" class=""/><path d="m382.639 302.5c-7.577-20.714-21.149-39.188-38.796-52.565-20.249-15.35-44.457-23.463-70.008-23.463h-18.591v131.164c50.01-.457 95.18-21.534 127.395-55.136z" fill="#2a467e" data-original="#00385b" style="" class=""/><path d="m318.266 436.404-43.512-6.374-19.508-39.413-.001.003v99.45l.001-.001 38.949 20.421-7.385-43.353z" fill="#ffac63" data-original="#ffac63" style="" class=""/></g></g></svg>
