<?xml version="1.0"?>
<svg xmlns="http://www.w3.org/2000/svg" xmlns:xlink="http://www.w3.org/1999/xlink" xmlns:svgjs="http://svgjs.com/svgjs" version="1.1" width="512" height="512" x="0" y="0" viewBox="0 0 24 24" style="enable-background:new 0 0 512 512" xml:space="preserve" class=""><g><path xmlns="http://www.w3.org/2000/svg" d="m9.5 3.5 6 2.5-6 2.5-6-2.5z" fill="#2d5dc0" data-original="#2196f3" style="" class=""/><path xmlns="http://www.w3.org/2000/svg" d="m3.5 6 6 2.5v7l-6-2.5z" fill="#64b5f6" data-original="#64b5f6" style="" class=""/><path xmlns="http://www.w3.org/2000/svg" d="m9.5 15.5 6-2.5v-7l-6 2.5z" fill="#4267b2" data-original="#42a5f5" style="" class=""/><path xmlns="http://www.w3.org/2000/svg" d="m9.5 3.5-6 2.5 6 2.5z" fill="#213b6e" data-original="#1d83d4" style="" class=""/><path xmlns="http://www.w3.org/2000/svg" d="m3.5 6v7l6 2.5v-7z" fill="#2a467e" data-original="#579ed6" style="" class=""/><path xmlns="http://www.w3.org/2000/svg" d="m23.707 22.293-6.825-6.826c1.322-1.632 2.118-3.707 2.118-5.967 0-5.238-4.262-9.5-9.5-9.5s-9.5 4.262-9.5 9.5 4.262 9.5 9.5 9.5c2.26 0 4.335-.796 5.968-2.119l6.825 6.826c.391.391 1.023.391 1.414 0s.391-1.023 0-1.414zm-14.207-5.293c-4.136 0-7.5-3.364-7.5-7.5s3.364-7.5 7.5-7.5 7.5 3.364 7.5 7.5-3.364 7.5-7.5 7.5z" fill="#474f54" data-original="#cfd8dc" style="" class=""/><path xmlns="http://www.w3.org/2000/svg" d="m2.831 2.74c-1.747 1.724-2.831 4.118-2.831 6.76 0 5.238 4.262 9.5 9.5 9.5 2.26 0 4.335-.796 5.968-2.119l6.825 6.826c.195.195.451.293.707.293s.512-.098.707-.293c.015-.015.03-.031.044-.047l-8.905-8.905c-1.361 1.385-3.255 2.245-5.346 2.245-4.136 0-7.5-3.364-7.5-7.5 0-2.091.86-3.985 2.245-5.346z" fill="#32393f" data-original="#b4bcc0" style="" class=""/></g></svg>
